<svg width="24" height="24" viewBox="0 0 24 24" fill="none" xmlns="http://www.w3.org/2000/svg">
<g clip-path="url(#clip0_4229_294)">
<path d="M19.5799 4.51822C19.5799 6.58426 17.9051 8.25911 15.839 8.25911H12.001V0.777336H15.839C17.9051 0.777336 19.5799 2.45219 19.5799 4.51822Z" fill="#7A7A7E"/>
<path d="M4.42188 4.5182C4.42188 6.58424 6.09673 8.25909 8.16277 8.25909H12.0008V0.777321H8.16277C6.09673 0.777321 4.42188 2.45217 4.42188 4.5182Z" fill="#7A7A7E"/>
<path d="M4.42188 12.0001C4.42188 14.0661 6.09673 15.741 8.16277 15.741H12.0008V8.25922H8.16277C6.09673 8.25922 4.42188 9.93406 4.42188 12.0001Z" fill="#7A7A7E"/>
<path d="M4.42188 19.4818C4.42188 21.5478 6.12086 23.2227 8.1869 23.2227C10.2798 23.2227 12.0008 21.5261 12.0008 19.4332V15.7409H8.16277C6.09672 15.7409 4.42188 17.4157 4.42188 19.4818Z" fill="#7A7A7E"/>
<path d="M12.001 12.0002C12.001 14.0662 13.6758 15.741 15.7419 15.741H15.839C17.9051 15.741 19.5799 14.0662 19.5799 12.0002C19.5799 9.93411 17.9051 8.25927 15.839 8.25927H15.7419C13.6758 8.25927 12.001 9.93411 12.001 12.0002Z" fill="#7A7A7E"/>
</g>
<defs>
<clipPath id="clip0_4229_294">
<rect width="16.7126" height="24" fill="white" transform="translate(3.64355)"/>
</clipPath>
</defs>
</svg>
