<svg width="24" height="24" viewBox="0 0 24 24" fill="none" xmlns="http://www.w3.org/2000/svg">
<path d="M20.7725 0C22.5548 0 24 1.4452 24 3.22754V20.7725C24 22.5548 22.5548 24 20.7725 24H3.22754C1.4452 24 0 22.5548 0 20.7725V3.22754C0 1.4452 1.4452 0 3.22754 0H20.7725ZM8.59473 7.49121C6.10435 7.49121 4.08498 9.50963 4.08496 12C4.08496 14.4904 6.10434 16.5098 8.59473 16.5098C11.0851 16.5097 13.1035 14.4904 13.1035 12C13.1035 9.50966 11.0851 7.49126 8.59473 7.49121ZM15.666 7.78223C14.5384 7.78243 13.624 9.65927 13.624 11.9746C13.6241 14.2899 14.5385 16.1668 15.666 16.167C16.7937 16.167 17.708 14.29 17.708 11.9746C17.708 9.65914 16.7937 7.78223 15.666 7.78223ZM19.1152 8.18555C18.6737 8.18555 18.3154 9.88198 18.3154 11.9746C18.3155 14.0672 18.6738 15.7637 19.1152 15.7637C19.5567 15.7637 19.915 14.0671 19.915 11.9746C19.915 9.88198 19.5567 8.18555 19.1152 8.18555Z" fill="#080808"/>
</svg>
