<svg width="24" height="24" viewBox="0 0 24 24" fill="none" xmlns="http://www.w3.org/2000/svg">
<g clip-path="url(#clip0_4229_287)">
<path fill-rule="evenodd" clip-rule="evenodd" d="M15.2396 0.0383439L1.97445 1.03515C0.900965 1.11183 0.517578 1.84026 0.517578 2.68371V17.2524C0.517578 17.9042 0.74761 18.4792 1.32269 19.2077L4.42812 23.2716C4.92652 23.9233 5.42493 24.0767 6.38339 24L21.7955 23.0799C23.099 23.0032 23.4824 22.3898 23.4824 21.3546V4.94569C23.4824 4.40895 23.2907 4.2556 22.639 3.79553C22.6006 3.75719 22.5623 3.75719 22.524 3.71885L18.3067 0.766778C17.3099 5.2833e-06 16.8882 -0.0766721 15.2396 0.0383439ZM6.72844 4.67732C5.46327 4.754 5.19489 4.79234 4.46646 4.17892L2.66454 2.76039C2.47285 2.5687 2.54953 2.33866 3.04793 2.30032L15.8147 1.3802C16.8882 1.30352 17.4249 1.64857 17.8467 1.99362L20.032 3.5655C20.147 3.60384 20.377 3.87221 20.0703 3.87221L6.8818 4.67732H6.72844ZM5.27157 21.2013V7.28435C5.27157 6.67093 5.46327 6.40256 6.00001 6.36422L21.1438 5.48243C21.6422 5.44409 21.8722 5.7508 21.8722 6.36422V20.1661C21.8722 20.7796 21.7572 21.278 20.9521 21.3163L6.46007 22.1597C5.65496 22.2364 5.27157 21.9297 5.27157 21.2013ZM19.5719 8.05112C19.6486 8.47285 19.5719 8.89457 19.1502 8.93291L18.4601 9.08627V19.361C17.8467 19.7061 17.3099 19.8594 16.8498 19.8594C16.1214 19.8594 15.9297 19.6294 15.3546 18.9393L10.754 11.7316V18.6709L12.2109 19.016C12.2109 19.016 12.2109 19.8594 11.0607 19.8594L7.84026 20.0511C7.76358 19.8594 7.84026 19.3994 8.14697 19.3227L8.99042 19.0927V9.89138L7.84026 9.77636C7.76358 9.35464 7.99362 8.74122 8.64537 8.70288L12.0959 8.47285L16.8498 15.7572V9.3163L15.623 9.16294C15.5463 8.66454 15.8914 8.28116 16.3514 8.24282L19.5719 8.05112Z" fill="#7A7A7E"/>
</g>
<defs>
<clipPath id="clip0_4229_287">
<rect width="22.9649" height="24" fill="white" transform="translate(0.517578)"/>
</clipPath>
</defs>
</svg>
