<svg width="24" height="24" viewBox="0 0 24 24" fill="none" xmlns="http://www.w3.org/2000/svg">
<g clip-path="url(#clip0_4229_282)">
<g clip-path="url(#clip1_4229_282)">
<path d="M14.0654 5.78932H19.794C20.9095 5.78932 21.9793 6.23246 22.7681 7.02124C23.5569 7.81003 24 8.87985 24 9.99536V15.4581H21.6465V9.99536C21.6465 9.93944 21.6441 9.88352 21.6399 9.82881L15.9114 15.4575L15.9691 15.4587L21.6465 15.4581V17.6805H15.9703C13.6469 17.6805 11.7126 15.7792 11.7126 13.4564V8.00749H14.0654V13.4564C14.0654 13.561 14.0733 13.6651 14.0895 13.7667L19.9437 8.01411C19.8937 8.01003 19.8435 8.00802 19.7934 8.00809H14.0654V5.78932ZM8.2792 17.2716L0 8.00689H3.33116L8.19141 13.4462V8.00689H10.6747V16.357C10.6747 17.6174 9.1186 18.2108 8.2792 17.271V17.2716Z" fill="#7A7A7E"/>
</g>
</g>
<defs>
<clipPath id="clip0_4229_282">
<rect width="24" height="24" fill="white"/>
</clipPath>
<clipPath id="clip1_4229_282">
<rect width="24" height="12.4224" fill="white" transform="translate(0 5.78879)"/>
</clipPath>
</defs>
</svg>
